<svg xmlns="http://www.w3.org/2000/svg" xmlns:xlink="http://www.w3.org/1999/xlink" version="1.1" id="Camada_1" x="0px" y="0px" viewBox="0 0 250 71.5" style="enable-background:new 0 0 250 71.5;" xml:space="preserve">
<style type="text/css">
	.st0{fill:#ffffff;}
</style>
<g>
	<path class="st0" d="M117.9,44.2L117.9,44.2c-0.1-0.1-0.2-0.2-0.2-0.3l-2.8-8.3c-0.2-0.7-0.9-1.1-1.6-1.1H96   c-0.7,0-1.3,0.5-1.6,1.1l-2.7,8.3c0,0.1-0.1,0.2-0.2,0.3c-0.3,0.3-0.7,0.5-1.2,0.5h-4.7c-0.2,0-0.4-0.1-0.6-0.2l0,0   c-0.2-0.2-0.3-0.6-0.2-0.9L99.2,0.8c0-0.1,0.1-0.3,0.3-0.4l0.1-0.1c0.3-0.3,0.7-0.4,1.1-0.4h8.2c0.4,0,0.8,0.2,1.1,0.4l0.1,0.1   c0.1,0.1,0.2,0.2,0.2,0.4l14.4,42.7c0.1,0.3,0,0.6-0.2,0.9c-0.2,0.2-0.4,0.2-0.6,0.2h-4.7C118.7,44.7,118.2,44.5,117.9,44.2    M103.1,10l-5.4,16c-0.4,1.1,0.4,2.2,1.6,2.2h10.8c1.1,0,1.9-1.1,1.6-2.2l-5.4-16C105.7,8.5,103.6,8.5,103.1,10" fill="#000000"/>
	<path class="st0" d="M133.3,44.7h-5c-0.2,0-0.5-0.1-0.6-0.3l-0.1-0.1c-0.2-0.2-0.3-0.4-0.3-0.7V1c0-0.3,0.1-0.5,0.3-0.7l0.1-0.1   c0.2-0.2,0.4-0.3,0.6-0.3h22.6c4.9,0,8.7,1.2,11.4,3.5c2.7,2.4,4,5.7,4,9.9c0,4.2-1.3,7.5-4,9.8c-2.7,2.4-6.4,3.6-11.4,3.6   c-0.8,0-1.3,1-0.7,1.6l16,15.6l-0.3,0.3c-0.2,0.2-0.4,0.3-0.7,0.3h-6.4c-0.1,0-0.3,0-0.4-0.1l-0.9-0.5c-0.1,0-0.2-0.1-0.3-0.2   l-16.9-16.9c-0.2-0.2-0.4-0.3-0.7-0.3h-4.4c-0.5,0-0.9,0.4-0.9,0.9v15.9c0,0.3-0.1,0.5-0.3,0.7l-0.1,0.1   C133.8,44.6,133.5,44.7,133.3,44.7 M134.3,7.3v12.2c0,0.5,0.4,0.9,0.9,0.9h15.6c6,0,8.3-2.4,8.3-7.1c0-4.6-2.4-7-8.3-7h-15.6   C134.7,6.4,134.3,6.8,134.3,7.3" fill="#000000"/>
	<path class="st0" d="M168.7,0.3L168.7,0.3c0.3-0.2,0.5-0.3,0.7-0.3h4.9c0.3,0,0.6,0.1,0.8,0.3c0.2,0.2,0.3,0.4,0.3,0.7v21.3   c0,5.3,1.2,9.3,3.7,11.9c2.4,2.7,5.6,4,9.7,4h0.1c4,0,7.2-1.4,9.7-4c2.4-2.7,3.6-6.6,3.6-11.9V1.1c0-0.3,0.1-0.6,0.4-0.8l0.1-0.1   c0.2-0.2,0.4-0.2,0.7-0.2h4.9c0.3,0,0.6,0.1,0.8,0.3c0.2,0.2,0.3,0.4,0.3,0.7v21.3c0,7-1.9,12.5-5.7,16.4   c-3.8,3.9-8.7,5.9-14.7,5.9c-6,0-10.8-2-14.7-5.9c-3.8-3.9-5.7-9.4-5.7-16.4V1.1C168.3,0.8,168.5,0.5,168.7,0.3" fill="#000000"/>
	<path class="st0" d="M244.7,40.8c-3.6,2.6-8.2,3.9-13.8,3.9c-3.5,0-7-0.6-10.6-1.7c-3.4-1.1-6.1-2.6-8.3-4.4   c-0.2-0.2-0.4-0.5-0.4-0.9v-0.1c0-0.3,0.1-0.6,0.3-0.8l3.1-3.1c0.2-0.2,0.5-0.3,0.8-0.3h0c0.3,0,0.6,0.1,0.8,0.3   c1.5,1.4,3.6,2.5,6.2,3.3c2.7,0.9,5.4,1.4,8,1.4h0.1c3.7,0,6.6-0.7,8.8-2.1c2.2-1.4,3.3-3,3.3-5.1c0-4-3.8-5.7-11.6-6.3   c-12.8-1-19.2-5.2-19.2-12.4c0-3.9,1.8-7,5.3-9.1C221,1.1,225.7,0,231.6,0c3.5,0,6.9,0.5,10.2,1.4c3.1,0.9,5.7,2.2,7.8,4   c0.2,0.2,0.4,0.5,0.4,0.9v0c0,0.3-0.1,0.6-0.3,0.8l-3.1,3c-0.2,0.2-0.5,0.3-0.8,0.3c-0.3,0-0.5-0.1-0.8-0.3   c-2.9-2.5-7.3-3.8-13.3-3.8h-0.2c-3.8,0-6.8,0.6-9,1.6c-2.3,1.1-3.4,2.6-3.4,4.4c0,3.8,4.3,5.4,12.6,6h0.1   C244,19.4,250,23.6,250,31.1C250,35,248.2,38.2,244.7,40.8" fill="#000000"/>
	<path class="st0" d="M1.3,71.2h6.4c1.4,0,2.9-0.3,4.1-0.9c11.2-5.3,19-16.8,19-30c0-9.8-4.2-18.6-11-24.6L0.1,69.3   C-0.2,70.2,0.4,71.2,1.3,71.2" fill="#000000"/>
	<path class="st0" d="M71.1,69.3L45.6,0.9C45.4,0.4,44.9,0,44.4,0h-18c-0.5,0-1,0.4-1.2,0.9l-5,13.7c21.6,10.8,37.2,31.8,40.4,56.7   h9.4C70.9,71.2,71.5,70.2,71.1,69.3" fill="#000000"/>
	<path class="st0" d="M107,69.9c-1.4,1-3.2,1.6-5.5,1.6c-1.4,0-2.8-0.2-4.2-0.7c-1.3-0.4-2.4-1-3.3-1.8c-0.1-0.1-0.2-0.2-0.2-0.3v0   c0-0.1,0-0.2,0.1-0.3l1.2-1.2c0.1-0.1,0.2-0.1,0.3-0.1h0c0.1,0,0.2,0,0.3,0.1c0.6,0.5,1.4,1,2.4,1.3c1.1,0.4,2.1,0.5,3.2,0.5h0.1   c1.5,0,2.6-0.3,3.5-0.8c0.9-0.5,1.3-1.2,1.3-2c0-1.6-1.5-2.3-4.6-2.5c-5.1-0.4-7.6-2.1-7.6-4.9c0-1.6,0.7-2.8,2.1-3.6   c1.4-0.9,3.3-1.3,5.6-1.3c1.4,0,2.7,0.2,4.1,0.6c1.2,0.3,2.3,0.9,3.1,1.6c0.1,0.1,0.2,0.2,0.2,0.3v0c0,0.1,0,0.2-0.1,0.3l-1.2,1.2   c-0.1,0.1-0.2,0.1-0.3,0.1c-0.1,0-0.2,0-0.3-0.1c-1.1-1-2.9-1.5-5.3-1.5h-0.1c-1.5,0-2.7,0.2-3.6,0.6c-0.9,0.4-1.3,1-1.3,1.7   c0,1.5,1.7,2.1,5,2.4h0.1c4.8,0.4,7.2,2.1,7.2,5.1C109.1,67.6,108.4,68.9,107,69.9" fill="#000000"/>
	<path class="st0" d="M126.8,56.1c1.7,1.6,2.6,3.7,2.6,6.5c0,2.8-0.9,4.9-2.6,6.5c-1.7,1.6-3.8,2.4-6.3,2.4c-2.4,0-4.5-0.8-6.3-2.4   c-1.7-1.6-2.6-3.7-2.6-6.5c0-2.8,0.9-4.9,2.6-6.5c1.7-1.6,3.8-2.4,6.3-2.4C123,53.7,125.1,54.5,126.8,56.1 M120.6,68.9   c1.7,0,3.1-0.6,4.3-1.6c1.2-1.1,1.8-2.7,1.8-4.7c0-2.1-0.6-3.6-1.8-4.7c-1.2-1.1-2.6-1.6-4.3-1.6h-0.1c-1.7,0-3.1,0.6-4.3,1.6   c-1.2,1.1-1.8,2.7-1.8,4.7c0,2.1,0.6,3.6,1.8,4.7C117.4,68.4,118.9,68.9,120.6,68.9L120.6,68.9z" fill="#000000"/>
	<path class="st0" d="M134.6,71.5h-1.9c-0.1,0-0.2,0-0.3-0.1l0,0c-0.1-0.1-0.1-0.2-0.1-0.3V54.2c0-0.1,0.1-0.2,0.1-0.3l0,0   c0.1-0.1,0.2-0.1,0.3-0.1h14.6c0.1,0,0.2,0,0.3,0.1l0,0c0.1,0.1,0.1,0.2,0.1,0.3v1.7c0,0.1,0,0.2-0.1,0.3l0,0   c-0.1,0.1-0.2,0.1-0.3,0.1h-11.8c-0.2,0-0.4,0.2-0.4,0.4v4.2c0,0.2,0.2,0.4,0.4,0.4h9.6c0.1,0,0.2,0,0.3,0.1l0,0   c0.1,0.1,0.1,0.2,0.1,0.3v1.7c0,0.1,0,0.2-0.1,0.3l0,0c-0.1,0.1-0.2,0.1-0.3,0.1h-9.6c-0.2,0-0.4,0.2-0.4,0.4v6.8   c0,0.1,0,0.2-0.1,0.3C134.8,71.4,134.7,71.5,134.6,71.5" fill="#000000"/>
	<path class="st0" d="M165.2,53.8L165.2,53.8c0.1,0.1,0.1,0.2,0.1,0.3v1.7c0,0.1,0,0.2-0.1,0.3c-0.1,0.1-0.2,0.1-0.3,0.1h-5.5   c-0.2,0-0.4,0.2-0.4,0.4v14.4c0,0.1,0,0.2-0.1,0.3v0c-0.1,0.1-0.2,0.1-0.3,0.1h-1.9c-0.1,0-0.2,0-0.3-0.1l0,0   c-0.1-0.1-0.1-0.2-0.1-0.3V56.7c0-0.2-0.2-0.4-0.4-0.4h-5.5c-0.1,0-0.2,0-0.3-0.1l0,0c-0.1-0.1-0.1-0.2-0.1-0.3v-1.7   c0-0.1,0-0.2,0.1-0.3l0,0c0.1-0.1,0.2-0.1,0.3-0.1h14.6C165,53.7,165.1,53.8,165.2,53.8" fill="#000000"/>
	<path class="st0" d="M170.4,53.8L170.4,53.8c0.1,0.1,0.1,0.2,0.2,0.2l2.9,12.5c0.1,0.4,0.6,0.4,0.7,0l2.4-10.5c0-0.1,0-0.1,0.1-0.2   l0.1-0.1c0.1-0.1,0.2-0.1,0.3-0.1h2.3c0.1,0,0.2,0,0.3,0.1l0.1,0.1c0,0,0.1,0.1,0.1,0.2l2.4,10.5c0.1,0.4,0.6,0.4,0.7,0l2.9-12.5   c0-0.1,0-0.1,0.1-0.2l0.1-0.1c0.1-0.1,0.2-0.1,0.3-0.1h2.1c0.1,0,0.2,0,0.3,0.1c0.1,0.1,0.1,0.2,0.1,0.4l-4,16.9   c0,0.1-0.1,0.1-0.1,0.2l-0.1,0.1c-0.1,0.1-0.2,0.1-0.2,0.1H181c-0.1,0-0.2,0-0.2-0.1l-0.1-0.1c-0.1-0.1-0.1-0.1-0.1-0.2l-1.9-8.1   c-0.1-0.4-0.6-0.4-0.7,0l-1.9,8.1c0,0.1-0.1,0.1-0.1,0.2l-0.1,0.1c-0.1,0.1-0.2,0.1-0.2,0.1h-3.5c-0.1,0-0.2,0-0.2-0.1l-0.1-0.1   c-0.1-0.1-0.1-0.1-0.1-0.2l-4-16.9c0-0.1,0-0.3,0.1-0.4c0.1-0.1,0.2-0.1,0.3-0.1h2.1C170.3,53.7,170.4,53.8,170.4,53.8" fill="#000000"/>
	<path class="st0" d="M202.7,71.4L202.7,71.4c-0.1-0.1-0.2-0.2-0.2-0.2l-1.2-3.5c0-0.1-0.2-0.2-0.3-0.2h-7.3c-0.1,0-0.3,0.1-0.3,0.2   l-1.2,3.5c0,0.1,0,0.1-0.1,0.1l-0.1,0.1c-0.1,0.1-0.1,0.1-0.2,0.1h-2c-0.1,0-0.2,0-0.2-0.1l0,0c-0.1-0.1-0.1-0.2-0.1-0.4l5.7-17   c0-0.1,0.1-0.1,0.1-0.1l0.1-0.1c0.1-0.1,0.1-0.1,0.2-0.1h3.5c0.1,0,0.2,0,0.2,0.1l0.1,0.1c0,0,0.1,0.1,0.1,0.1l5.7,17   c0,0.1,0,0.3-0.1,0.3c-0.1,0.1-0.2,0.1-0.2,0.1h-2C202.9,71.5,202.8,71.4,202.7,71.4 M197,56.8l-2.6,7.6c-0.1,0.2,0.1,0.4,0.3,0.4   h5.2c0.2,0,0.4-0.2,0.3-0.4l-2.6-7.6C197.6,56.5,197.1,56.5,197,56.8" fill="#000000"/>
	<path class="st0" d="M209.9,71.5h-2c-0.1,0-0.2,0-0.3-0.1l0,0c-0.1-0.1-0.1-0.2-0.1-0.3V54.1c0-0.1,0-0.2,0.1-0.3l0,0   c0.1-0.1,0.2-0.1,0.3-0.1h9c2,0,3.5,0.5,4.5,1.4c1.1,0.9,1.6,2.3,1.6,3.9c0,1.7-0.5,3-1.6,3.9c-1.1,1-2.6,1.4-4.5,1.4   c-0.3,0-0.5,0.4-0.3,0.6l6.2,6c0.1,0.1,0.1,0.2,0,0.3c0,0-0.1,0.1-0.2,0.1H220c-0.1,0-0.1,0-0.2,0l-0.4-0.2c0,0-0.1,0-0.1-0.1   l-6.7-6.7c-0.1-0.1-0.2-0.1-0.3-0.1h-1.8c-0.2,0-0.4,0.2-0.4,0.4v6.3c0,0.1,0,0.2-0.1,0.3l0,0C210.1,71.4,210,71.5,209.9,71.5    M210.3,56.6v4.8c0,0.2,0.2,0.4,0.4,0.4h6.2c2.4,0,3.3-1,3.3-2.8c0-1.8-0.9-2.8-3.3-2.8h-6.2C210.4,56.3,210.3,56.4,210.3,56.6" fill="#000000"/>
	<path class="st0" d="M241.1,53.8L241.1,53.8c0.1,0.1,0.1,0.2,0.1,0.3v1.7c0,0.1,0,0.2-0.1,0.3c-0.1,0.1-0.2,0.1-0.3,0.1H229   c-0.2,0-0.4,0.2-0.4,0.4v4.2c0,0.2,0.2,0.4,0.4,0.4h9.5c0.1,0,0.2,0,0.3,0.1h0c0.1,0.1,0.1,0.2,0.1,0.3v1.7c0,0.1,0,0.2-0.1,0.3h0   c-0.1,0.1-0.2,0.1-0.3,0.1H229c-0.2,0-0.4,0.2-0.4,0.4v4.2c0,0.2,0.2,0.4,0.4,0.4h11.8c0.1,0,0.2,0,0.3,0.1l0,0   c0.1,0.1,0.1,0.2,0.1,0.3V71c0,0.1,0,0.2-0.1,0.3l0,0c-0.1,0.1-0.2,0.1-0.3,0.1h-14.6c-0.1,0-0.2,0-0.3-0.1l0,0   c-0.1-0.1-0.1-0.2-0.1-0.3V54.2c0-0.1,0-0.2,0.1-0.3l0,0c0.1-0.1,0.2-0.1,0.3-0.1h14.6C240.9,53.7,241,53.8,241.1,53.8" fill="#000000"/>
</g>
</svg>